<svg width="136" height="132" viewBox="0 0 136 132" fill="none" xmlns="http://www.w3.org/2000/svg">
<path d="M20.7351 18.7226C19.9066 19.076 19.0814 18.9145 18.2496 18.8101C14.6526 18.3556 11.0759 18.7192 7.51604 19.1804C5.70747 19.4161 4.1515 20.4125 2.68309 21.4561C1.72997 22.1328 0.999139 23.0788 1.37298 24.3176C1.76365 25.6104 2.92895 25.8629 4.10772 25.7652C7.00748 25.5228 9.81632 24.6947 12.7464 24.5297C15.4576 24.3782 18.0812 24.624 20.7149 25.2098C18.3506 25.4723 15.9796 25.4488 13.6187 25.6609C9.38859 26.0413 5.55255 27.536 1.81417 29.3707C0.729706 29.9026 -0.236883 30.6803 0.170634 32.138C0.551207 33.5081 1.61883 33.8414 2.90874 33.8818C6.05437 33.9761 9.17305 33.2859 12.3187 33.5485C13.9555 33.6832 15.5855 33.8919 17.2021 34.3295C14.7436 34.4373 12.3187 34.5046 9.90388 34.8076C6.91992 35.1813 4.09424 36.0599 1.41339 37.3897C0.598358 37.7936 -0.186364 38.4232 0.0392856 39.4735C0.281775 40.6046 1.30562 40.608 2.21495 40.5946C7.38132 40.5205 12.541 40.5575 17.6265 41.6281C19.2397 41.9681 20.8159 42.4865 22.3651 43.1194C21.4255 43.6378 20.533 43.2608 19.7011 43.0386C15.4475 41.8974 11.1163 42.1835 6.80878 42.3418C5.13156 42.4023 3.55201 43.1463 2.03982 43.9038C1.47401 44.1866 0.935149 44.5704 1.07323 45.3143C1.20121 46.0078 1.78049 46.3176 2.39345 46.4623C3.92585 46.8225 5.47845 47.0312 7.06137 46.9976C9.26735 46.9505 11.443 47.1827 13.5143 47.9806C17.5019 49.5123 19.8459 52.5354 21.1796 56.4843C22.5403 60.514 23.9346 64.5335 25.3457 68.5464C26.2113 71.0005 27.5517 73.246 28.3802 75.7338C30.0608 80.7667 33.9709 84.1601 37.7093 87.604C40.8381 90.4857 44.014 93.3135 47.3247 96.0034C51.9353 99.7502 57.1489 102.07 62.8137 103.682C66.8383 104.83 70.9438 105.366 75.056 105.796C78.919 106.2 82.7551 105.268 86.6012 104.901C92.5456 104.335 98.3316 103.177 103.784 100.602C110.971 97.2086 117.071 92.6066 121.483 85.8534C125.147 80.2482 128.562 74.5118 130.626 68.1424C131.583 65.1934 132.081 61.9818 132.139 58.8745C132.294 50.5425 132.772 42.1566 130.074 34.0367C129.387 31.9663 128.973 29.805 128.454 27.6808C128.299 27.0378 128.016 26.1961 129.185 26.3005C131.317 26.489 132.607 25.4757 133.274 23.5636C133.796 22.0621 132.947 19.9311 131.378 18.6754C130.458 17.9415 129.502 17.2581 128.572 16.5344C127.754 15.8947 127.888 15.2214 128.084 14.2048C128.67 11.1211 130.872 11.0908 133.186 11.0504C133.674 11.0436 134.163 11.0504 135.008 11.0504C133.624 9.31664 131.96 8.67364 130.273 8.27639C128.909 7.95321 128.063 7.21932 127.171 6.21275C126.332 5.2634 125.46 4.57664 125.827 3.09539C126.012 2.34467 125.386 1.58048 124.621 1.50305C123.392 1.37849 122.432 0.839853 121.432 0.200223C120.375 -0.476438 114.905 0.728759 113.885 1.34482C112.278 2.31773 110.47 2.95736 111.042 5.39806C111.062 5.48895 110.843 5.65728 110.709 5.75491C106.479 8.8588 105.061 13.7334 102.966 18.157C99.2948 25.9167 93.7445 31.7441 85.3618 34.0367C79.0099 35.7738 72.4829 35.3933 66.0974 33.5048C60.4999 31.8518 55.7781 28.5695 51.1641 25.2266C45.4521 21.0858 39.9523 16.6488 34.4694 12.1882C27.7134 6.69415 19.6809 4.61704 10.9446 5.66065C9.22357 5.866 7.47225 5.90976 5.84892 6.65039C5.10125 6.9904 4.48155 7.41121 4.16497 8.1956C3.72377 9.29307 3.94942 10.0438 5.19892 10.34C6.09478 10.5521 6.97717 10.4276 7.8764 10.3905C13.0327 10.1717 18.0812 10.6195 22.7929 12.9693C23.4833 13.3126 24.1973 13.6392 24.8507 14.4842C22.5302 13.9152 20.432 13.3934 18.327 12.8851C13.6119 11.7472 8.92382 11.2961 4.31653 13.3968C3.45097 13.7907 2.63931 14.1846 2.72014 15.2854C2.79423 16.3088 3.51496 16.8542 4.41083 17.1774C6.09141 17.78 7.82588 17.7025 9.57046 17.5813C13.3425 17.3221 17.027 17.9988 20.7283 18.7158L20.7351 18.7226ZM119.479 78.9791C118.755 83.1333 116.043 85.5101 112.032 85.8501C110.624 85.9679 109.304 86.2709 108.061 87.0553C105.889 88.4221 105.158 90.6709 104.219 92.822C103.114 95.357 101.706 97.589 98.5842 98.3599C98.8368 97.5923 99.1803 96.8618 99.6384 96.9089C101.056 97.0604 101.417 95.9562 102.057 95.1752C102.804 94.2562 103.37 93.2193 103.818 92.1285C105.461 88.1258 108.142 85.3754 112.622 84.756C113.753 84.6011 114.754 84.0524 115.754 83.5575C116.821 83.029 117.546 82.157 117.751 80.7768C114.75 83.3488 110.655 82.7361 107.428 84.5944C111.116 82.0055 115.973 81.9887 119.482 78.9825L119.479 78.9791ZM95.5632 73.2426C97.328 71.1689 99.4464 69.7684 102.141 69.5765C105.044 69.3678 107.974 69.7987 110.87 69.223C111.2 69.1557 111.759 69.0009 111.871 69.526C111.962 69.9536 111.517 70.2195 111.163 70.3609C109.207 71.1419 107.156 71.381 104.761 71.5022C106.448 70.5562 108.247 71.2968 109.752 70.0815C104.448 69.2635 99.7293 69.9536 95.5632 73.2426Z" fill="#00110F"/>
<path d="M126.124 116.078C127.892 116.313 129.663 116.546 131.431 116.785C132.081 116.872 132.731 116.902 132.88 116.068C133.038 115.182 132.428 114.869 131.701 114.761C129.704 114.465 127.713 114.095 125.706 113.943C123.113 113.748 120.816 112.994 118.751 111.351C114.666 108.092 110.18 105.419 105.751 102.666C104.36 101.8 100.817 102.373 99.7461 103.612C99.1601 104.288 99.6283 104.558 100.204 104.84C106.095 107.725 111.968 110.651 117.879 113.492C119.139 114.098 119.9 114.94 120.381 116.232C121.281 118.646 122.331 121.006 123.281 123.403C123.672 124.389 124.227 124.972 125.312 124.453C126.47 123.901 125.692 123.134 125.437 122.467C124.837 120.925 124.197 119.4 123.399 117.441C125.925 118.956 127.774 120.558 129.697 122.06C130.34 122.561 130.916 122.831 131.573 122.05C132.321 121.158 132.246 120.508 131.223 119.882C129.427 118.778 127.68 117.603 125.911 116.458C125.982 116.333 126.053 116.206 126.12 116.081L126.124 116.078Z" fill="#00110F"/>
<path d="M45.9404 121.78C44.7852 123.11 43.7041 124.362 42.6163 125.608C42.2458 126.029 41.8349 126.416 41.4779 126.847C40.9862 127.439 40.5753 128.062 41.4106 128.712C42.2526 129.368 42.7173 128.783 43.2023 128.183C44.5697 126.49 45.9573 124.817 47.6682 123.312C48.1834 123.921 47.786 124.416 47.6412 124.904C47.163 126.517 46.6746 128.126 46.2065 129.742C45.9808 130.523 46.2772 131.095 47.0451 131.314C47.8904 131.553 48.1026 130.877 48.2778 130.277C48.9513 127.961 49.7697 125.672 50.2143 123.312C50.669 120.912 52.0195 119.158 53.5418 117.414C56.5662 113.957 59.5569 110.469 62.5476 106.978C63.5984 105.753 63.5074 105.345 62.0356 104.857C58.0683 103.544 58.7418 103.288 56.8726 106.685C54.7812 110.489 52.2014 113.93 49.6215 117.387C49.049 118.155 48.3586 118.586 47.456 118.848C44.9772 119.565 42.5153 120.339 40.05 121.104C39.6222 121.235 39.208 121.41 38.8005 121.599C38.0225 121.955 37.9652 122.582 38.2313 123.292C38.5411 124.12 39.1676 123.965 39.7671 123.726C41.1243 123.191 42.4546 122.588 43.8186 122.08C44.4148 121.858 45.0109 121.447 45.9371 121.777L45.9404 121.78Z" fill="#00110F"/>
</svg>
