<svg width="30" height="30" viewBox="0 0 30 30" fill="none" xmlns="http://www.w3.org/2000/svg">
<path d="M22.8749 7.1374C22.3874 6.6499 21.5999 6.6499 21.1124 7.1374L14.9999 13.2374L8.8874 7.1249C8.3999 6.6374 7.6124 6.6374 7.1249 7.1249C6.6374 7.6124 6.6374 8.3999 7.1249 8.8874L13.2374 14.9999L7.1249 21.1124C6.6374 21.5999 6.6374 22.3874 7.1249 22.8749C7.6124 23.3624 8.3999 23.3624 8.8874 22.8749L14.9999 16.7624L21.1124 22.8749C21.5999 23.3624 22.3874 23.3624 22.8749 22.8749C23.3624 22.3874 23.3624 21.5999 22.8749 21.1124L16.7624 14.9999L22.8749 8.8874C23.3499 8.4124 23.3499 7.6124 22.8749 7.1374Z" fill="white"/>
</svg>
