<svg width="243" height="287" viewBox="0 0 243 287" fill="none" xmlns="http://www.w3.org/2000/svg">
<path d="M37.3216 64.269C35.8304 64.9052 34.3453 64.6144 32.8481 64.4265C26.3742 63.6086 19.9367 64.2629 13.5296 65.093C10.2744 65.5172 7.47395 67.3107 4.83107 69.189C3.11562 70.4069 1.80023 72.1095 2.47308 74.3392C3.17623 76.6659 5.27357 77.1203 7.39515 76.9446C12.6142 76.5084 17.6697 75.0178 22.9433 74.7209C27.823 74.4483 32.545 74.8906 37.2852 75.9449C33.0299 76.4175 28.7625 76.3751 24.5133 76.7568C16.8998 77.4415 9.9956 80.1317 3.26716 83.4339C1.3153 84.3912 -0.424396 85.7909 0.309066 88.4145C0.994034 90.8805 2.91558 91.4804 5.2372 91.5531C10.8988 91.7227 16.5119 90.4806 22.1735 90.9532C25.1195 91.1956 28.0533 91.5712 30.9629 92.3589C26.5379 92.5528 22.1735 92.674 17.8273 93.2193C12.4566 93.8919 7.3709 95.4733 2.54582 97.8666C1.0789 98.5937 -0.333471 99.7268 0.0726606 101.617C0.5091 103.653 2.35185 103.659 3.9885 103.635C13.2871 103.502 22.5736 103.568 31.7267 105.495C34.6302 106.107 37.4671 107.04 40.2554 108.179C38.5642 109.112 36.9579 108.434 35.4607 108.034C27.8048 105.98 20.0095 106.495 12.2566 106.78C9.2379 106.889 6.39498 108.228 3.67329 109.591C2.65493 110.1 1.68506 110.791 1.93359 112.13C2.16393 113.378 3.20654 113.935 4.30976 114.196C7.06782 114.844 9.86225 115.22 12.7112 115.159C16.6816 115.074 20.5975 115.493 24.3254 116.929C31.5024 119.685 35.7213 125.126 38.1217 132.234C40.5706 139.486 43.0802 146.721 45.62 153.943C47.1779 158.361 49.5904 162.402 51.0816 166.88C54.1063 175.938 61.1439 182.046 67.8724 188.244C73.5037 193.431 79.2198 198.52 85.1784 203.361C93.4768 210.105 102.86 214.28 113.056 217.182C120.3 219.248 127.689 220.212 135.09 220.987C142.043 221.714 148.947 220.036 155.87 219.376C166.568 218.358 176.982 216.273 186.796 211.638C199.732 205.531 210.709 197.248 218.65 185.093C225.245 175.005 231.392 164.68 235.108 153.216C236.829 147.909 237.726 142.128 237.829 136.536C238.108 121.539 238.969 106.446 234.113 91.8318C232.877 88.1054 232.131 84.2155 231.198 80.3922C230.919 79.2349 230.41 77.7202 232.513 77.908C236.35 78.2473 238.672 76.4235 239.872 72.982C240.812 70.2796 239.284 66.4442 236.459 64.1842C234.805 62.8633 233.083 61.6333 231.41 60.3306C229.937 59.1794 230.179 57.9675 230.531 56.1377C231.586 50.5876 235.55 50.533 239.714 50.4603C240.593 50.4482 241.472 50.4603 242.994 50.4603C240.502 47.3399 237.508 46.1826 234.471 45.4676C232.016 44.886 230.495 43.5651 228.888 41.7534C227.379 40.0448 225.809 38.8087 226.47 36.1427C226.803 34.7915 225.676 33.4161 224.3 33.2768C222.087 33.0526 220.36 32.0831 218.559 30.9319C216.656 29.714 206.812 31.8832 204.975 32.992C202.084 34.7431 198.829 35.8943 199.859 40.2871C199.895 40.4507 199.501 40.7537 199.259 40.9294C191.645 46.5159 189.094 55.2894 185.323 63.2511C178.716 77.2173 168.726 87.7055 153.639 91.8318C142.207 94.9583 130.459 94.2736 118.966 90.8744C108.892 87.8994 100.393 81.9918 92.0887 75.9752C81.8081 68.5225 71.9094 60.5366 62.041 52.5083C49.8814 42.6199 35.4243 38.8814 19.7003 40.7597C16.6028 41.1293 13.4508 41.2081 10.529 42.5411C9.18334 43.1531 8.068 43.9105 7.4982 45.3222C6.70412 47.2975 7.11025 48.6487 9.35913 49.1819C10.9715 49.5636 12.5597 49.3394 14.1782 49.2728C23.4586 48.8789 32.545 49.6848 41.0253 53.914C42.2679 54.532 43.553 55.1198 44.7289 56.6406C40.5525 55.6166 36.776 54.6775 32.9875 53.7625C24.5012 51.7146 16.0633 50.9027 7.77097 54.6835C6.21313 55.3924 4.75226 56.1013 4.89774 58.0827C5.0311 59.9246 6.3283 60.9062 7.9407 61.4879C10.9655 62.5725 14.0872 62.4331 17.2272 62.215C24.0162 61.7484 30.6477 62.9663 37.3095 64.2569L37.3216 64.269ZM215.044 172.721C213.74 180.198 208.861 184.475 201.641 185.087C199.107 185.299 196.731 185.845 194.494 187.256C190.585 189.716 189.269 193.764 187.578 197.636C185.59 202.198 183.056 206.215 177.437 207.603C177.892 206.221 178.51 204.906 179.334 204.991C181.886 205.264 182.535 203.277 183.687 201.871C185.032 200.217 186.051 198.351 186.857 196.387C189.815 189.183 194.64 184.233 202.702 183.118C204.739 182.839 206.539 181.852 208.339 180.961C210.261 180.01 211.564 178.44 211.934 175.956C206.533 180.585 199.162 179.483 193.355 182.827C199.992 178.168 208.733 178.137 215.05 172.727L215.044 172.721ZM172 162.396C175.176 158.663 178.989 156.143 183.838 155.798C189.063 155.422 194.337 156.197 199.55 155.161C200.144 155.04 201.15 154.761 201.35 155.707C201.514 156.476 200.714 156.955 200.077 157.209C196.555 158.615 192.864 159.045 188.554 159.263C191.591 157.561 194.828 158.894 197.537 156.706C187.99 155.234 179.498 156.476 172 162.396Z" fill="url(#paint0_linear_39_68)"/>
<path d="M131.072 270.735C130.895 273.941 130.723 277.152 130.54 280.358C130.473 281.537 130.508 282.707 132.027 282.857C133.638 283.019 134.115 281.881 134.208 280.561C134.462 276.936 134.851 273.313 134.844 269.69C134.835 265.009 135.87 260.783 138.532 256.85C143.813 249.068 147.988 240.647 152.315 232.317C153.675 229.701 152.156 223.423 149.785 221.673C148.489 220.715 148.071 221.592 147.643 222.665C143.283 233.636 138.848 244.581 134.569 255.582C133.656 257.926 132.251 259.409 129.998 260.452C125.791 262.401 121.702 264.614 117.533 266.65C115.817 267.488 114.849 268.566 115.93 270.44C117.081 272.443 118.35 270.94 119.511 270.388C122.195 269.099 124.843 267.739 128.248 266.035C125.88 270.778 123.26 274.318 120.833 277.977C120.022 279.201 119.618 280.272 121.111 281.342C122.816 282.56 123.971 282.337 124.953 280.413C126.685 277.038 128.551 273.739 130.36 270.407C130.594 270.517 130.833 270.626 131.066 270.73L131.072 270.735Z" fill="url(#paint1_linear_39_68)"/>
<path d="M145.469 264.819C146.274 267.886 147.039 270.763 147.788 273.644C148.038 274.622 148.197 275.625 148.475 276.593C148.857 277.925 149.366 279.168 151.18 278.585C153.01 277.999 152.61 276.714 152.211 275.385C151.081 271.635 150.001 267.874 149.499 263.804C150.927 263.656 151.26 264.749 151.839 265.46C153.751 267.806 155.648 270.165 157.576 272.5C158.508 273.627 159.66 273.767 160.764 272.848C161.977 271.833 161.186 270.831 160.473 269.963C157.713 266.612 155.139 263.074 152.082 260.019C148.974 256.908 147.736 253.121 146.688 249.089C144.615 241.085 142.464 233.101 140.307 225.113C139.551 222.308 138.853 222.03 136.635 223.723C130.658 228.29 130.961 227.029 134.115 233.253C137.649 240.222 140.148 247.547 142.671 254.89C143.232 256.52 143.172 257.983 142.647 259.592C141.198 264.004 139.852 268.45 138.488 272.891C138.249 273.66 138.089 274.453 137.956 275.25C137.697 276.769 138.57 277.489 139.896 277.814C141.442 278.193 141.847 277.105 142.1 275.971C142.681 273.41 143.134 270.821 143.762 268.278C144.036 267.166 144.031 265.863 145.46 264.821L145.469 264.819Z" fill="url(#paint2_linear_39_68)"/>
<path d="M134.823 1.01211C134.823 1.01211 125.804 0.151721 119.142 11.9488C112.704 23.352 107.885 41.5595 119.869 53.302C131.853 65.0445 149.814 55.7681 153.511 47.6126C157.209 39.457 156.93 29.8715 154.105 21.922C151.281 13.9725 145.649 1.72102 134.823 1.01211Z" fill="white"/>
<defs>
<linearGradient id="paint0_linear_39_68" x1="121.498" y1="30.5715" x2="121.498" y2="148.209" gradientUnits="userSpaceOnUse">
<stop stop-opacity="0.56"/>
<stop offset="1" stop-color="#00110F"/>
</linearGradient>
<linearGradient id="paint1_linear_39_68" x1="154.507" y1="250.993" x2="129.702" y2="252.91" gradientUnits="userSpaceOnUse">
<stop stop-opacity="0.56"/>
<stop offset="1" stop-color="#00110F"/>
</linearGradient>
<linearGradient id="paint2_linear_39_68" x1="123.763" y1="239.706" x2="148.915" y2="256.866" gradientUnits="userSpaceOnUse">
<stop stop-opacity="0.56"/>
<stop offset="1" stop-color="#00110F"/>
</linearGradient>
</defs>
</svg>
