<svg width="131" height="39" viewBox="0 0 131 39" fill="none" xmlns="http://www.w3.org/2000/svg">
<path d="M19.7992 2V19L5.87922 2H0.519219V30H6.91922V13L20.8792 30H26.1992V2H19.7992ZM53.4639 19.32C53.4639 12.4 48.5839 8.16 42.2639 8.16C35.7039 8.16 30.7839 12.8 30.7839 19.24C30.7839 25.64 35.6239 30.32 43.0639 30.32C46.9439 30.32 49.9439 29.12 51.9439 26.84L48.6239 23.24C47.1439 24.64 45.5039 25.32 43.2239 25.32C39.9439 25.32 37.6639 23.68 37.0639 21H53.3439C53.3839 20.48 53.4639 19.8 53.4639 19.32ZM42.3039 12.88C45.1039 12.88 47.1439 14.64 47.5839 17.36H36.9839C37.4239 14.6 39.4639 12.88 42.3039 12.88ZM73.2983 0.319998V10.76C71.7383 9 69.4983 8.16 66.8583 8.16C60.7783 8.16 56.0983 12.48 56.0983 19.24C56.0983 26 60.7783 30.32 66.8583 30.32C69.7383 30.32 72.0183 29.4 73.5783 27.52V30H79.5383V0.319998H73.2983ZM67.9383 25.2C64.8183 25.2 62.4183 22.96 62.4183 19.24C62.4183 15.52 64.8183 13.28 67.9383 13.28C71.0183 13.28 73.4183 15.52 73.4183 19.24C73.4183 22.96 71.0183 25.2 67.9383 25.2ZM100.674 8.48L94.5936 23.08L88.5536 8.48H82.1136L91.4336 30.16L91.3536 30.36C90.5136 32.28 89.5536 33.04 87.8336 33.04C86.5936 33.04 85.2736 32.52 84.3136 31.68L82.0336 36.12C83.4336 37.36 85.8336 38.08 88.0336 38.08C91.9136 38.08 94.8736 36.52 96.9536 31.32L106.674 8.48H100.674ZM124.66 8.48V19.12C124.66 23.08 122.58 24.92 119.7 24.92C116.94 24.92 115.34 23.32 115.34 19.72V8.48H109.1V20.64C109.1 27.28 112.9 30.32 118.3 30.32C120.94 30.32 123.34 29.32 124.98 27.44V30H130.9V8.48H124.66Z" fill="#00110F"/>
</svg>
