<svg width="243" height="268" viewBox="0 0 243 268" fill="none" xmlns="http://www.w3.org/2000/svg">
<path d="M37.3216 64.269C35.8304 64.9052 34.3453 64.6144 32.8481 64.4265C26.3742 63.6086 19.9367 64.2629 13.5296 65.093C10.2744 65.5172 7.47395 67.3107 4.83107 69.189C3.11562 70.4069 1.80023 72.1095 2.47308 74.3392C3.17623 76.6659 5.27357 77.1203 7.39515 76.9446C12.6142 76.5084 17.6697 75.0178 22.9433 74.7209C27.823 74.4483 32.545 74.8906 37.2852 75.9449C33.0299 76.4175 28.7625 76.3751 24.5133 76.7568C16.8998 77.4415 9.9956 80.1317 3.26716 83.4339C1.3153 84.3912 -0.424396 85.7909 0.309066 88.4145C0.994034 90.8805 2.91558 91.4804 5.2372 91.5531C10.8988 91.7227 16.5119 90.4806 22.1735 90.9532C25.1195 91.1956 28.0533 91.5712 30.9629 92.3589C26.5379 92.5528 22.1735 92.674 17.8273 93.2193C12.4566 93.8919 7.3709 95.4733 2.54582 97.8666C1.0789 98.5937 -0.333471 99.7268 0.0726606 101.617C0.5091 103.653 2.35185 103.659 3.9885 103.635C13.2871 103.502 22.5736 103.568 31.7267 105.495C34.6302 106.107 37.4671 107.04 40.2554 108.179C38.5642 109.112 36.9579 108.434 35.4607 108.034C27.8048 105.98 20.0095 106.495 12.2566 106.78C9.2379 106.889 6.39498 108.228 3.67329 109.591C2.65493 110.1 1.68506 110.791 1.93359 112.13C2.16393 113.378 3.20654 113.935 4.30976 114.196C7.06782 114.844 9.86225 115.22 12.7112 115.159C16.6816 115.074 20.5975 115.493 24.3254 116.929C31.5024 119.685 35.7213 125.126 38.1217 132.234C40.5706 139.486 43.0802 146.721 45.62 153.943C47.1779 158.361 49.5904 162.402 51.0816 166.88C54.1063 175.938 61.1439 182.046 67.8724 188.244C73.5037 193.431 79.2198 198.52 85.1784 203.361C93.4768 210.105 102.86 214.28 113.056 217.182C120.3 219.248 127.689 220.212 135.09 220.987C142.043 221.714 148.947 220.036 155.87 219.376C166.568 218.358 176.982 216.273 186.796 211.638C199.732 205.531 210.709 197.248 218.65 185.093C225.245 175.005 231.392 164.68 235.108 153.216C236.829 147.909 237.726 142.128 237.829 136.536C238.108 121.539 238.969 106.446 234.113 91.8318C232.877 88.1054 232.131 84.2155 231.198 80.3922C230.919 79.2349 230.41 77.7202 232.513 77.908C236.35 78.2473 238.672 76.4235 239.872 72.982C240.812 70.2796 239.284 66.4442 236.459 64.1842C234.805 62.8633 233.083 61.6333 231.41 60.3306C229.937 59.1794 230.179 57.9675 230.531 56.1377C231.586 50.5876 235.55 50.533 239.714 50.4603C240.593 50.4482 241.472 50.4603 242.994 50.4603C240.502 47.3399 237.508 46.1826 234.471 45.4676C232.016 44.886 230.495 43.5651 228.888 41.7534C227.379 40.0448 225.809 38.8087 226.47 36.1427C226.803 34.7915 225.676 33.4161 224.3 33.2768C222.087 33.0526 220.36 32.0831 218.559 30.9319C216.656 29.714 206.812 31.8832 204.975 32.992C202.084 34.7431 198.829 35.8943 199.859 40.2871C199.895 40.4507 199.501 40.7537 199.259 40.9294C191.645 46.5159 189.094 55.2894 185.323 63.2511C178.716 77.2173 168.726 87.7055 153.639 91.8318C142.207 94.9583 130.459 94.2736 118.966 90.8744C108.892 87.8994 100.393 81.9918 92.0887 75.9752C81.8081 68.5225 71.9094 60.5366 62.041 52.5083C49.8814 42.6199 35.4243 38.8814 19.7003 40.7597C16.6028 41.1293 13.4508 41.2081 10.529 42.5411C9.18334 43.1531 8.068 43.9105 7.4982 45.3222C6.70412 47.2975 7.11025 48.6487 9.35913 49.1819C10.9715 49.5636 12.5597 49.3394 14.1782 49.2728C23.4586 48.8789 32.545 49.6848 41.0253 53.914C42.2679 54.532 43.553 55.1198 44.7289 56.6406C40.5525 55.6166 36.776 54.6775 32.9875 53.7625C24.5012 51.7146 16.0633 50.9027 7.77097 54.6835C6.21313 55.3924 4.75226 56.1013 4.89774 58.0827C5.0311 59.9246 6.3283 60.9062 7.9407 61.4879C10.9655 62.5725 14.0872 62.4331 17.2272 62.215C24.0162 61.7484 30.6477 62.9663 37.3095 64.2569L37.3216 64.269ZM215.044 172.721C213.74 180.198 208.861 184.475 201.641 185.087C199.107 185.299 196.731 185.845 194.494 187.256C190.585 189.716 189.269 193.764 187.578 197.636C185.59 202.198 183.056 206.215 177.437 207.603C177.892 206.221 178.51 204.906 179.334 204.991C181.886 205.264 182.535 203.277 183.687 201.871C185.032 200.217 186.051 198.351 186.857 196.387C189.815 189.183 194.64 184.233 202.702 183.118C204.739 182.839 206.539 181.852 208.339 180.961C210.261 180.01 211.564 178.44 211.934 175.956C206.533 180.585 199.162 179.483 193.355 182.827C199.992 178.168 208.733 178.137 215.05 172.727L215.044 172.721ZM172 162.396C175.176 158.663 178.989 156.143 183.838 155.798C189.063 155.422 194.337 156.197 199.55 155.161C200.144 155.04 201.15 154.761 201.35 155.707C201.514 156.476 200.714 156.955 200.077 157.209C196.555 158.615 192.864 159.045 188.554 159.263C191.591 157.561 194.828 158.894 197.537 156.706C187.99 155.234 179.498 156.476 172 162.396Z" fill="url(#paint0_linear_39_225)"/>
<path d="M227.003 239.492C230.185 239.916 233.374 240.334 236.556 240.764C237.726 240.922 238.896 240.976 239.163 239.474C239.448 237.88 238.35 237.317 237.041 237.123C233.447 236.589 229.864 235.923 226.251 235.65C221.584 235.299 217.45 233.942 213.734 230.985C206.381 225.12 198.307 220.309 190.336 215.352C187.833 213.795 181.456 214.825 179.528 217.055C178.473 218.273 179.316 218.758 180.352 219.266C190.954 224.459 201.526 229.724 212.164 234.838C214.431 235.929 215.801 237.444 216.668 239.77C218.286 244.115 220.178 248.362 221.887 252.676C222.59 254.452 223.59 255.5 225.542 254.567C227.627 253.573 226.227 252.192 225.766 250.992C224.688 248.217 223.536 245.472 222.099 241.946C226.645 244.672 229.973 247.556 233.434 250.259C234.592 251.162 235.629 251.646 236.811 250.241C238.157 248.635 238.023 247.465 236.18 246.338C232.95 244.351 229.804 242.236 226.621 240.176C226.748 239.952 226.876 239.722 226.997 239.498L227.003 239.492Z" fill="url(#paint1_linear_39_225)"/>
<path d="M82.6871 249.756C80.608 252.149 78.6622 254.403 76.7043 256.645C76.0375 257.402 75.298 258.099 74.6554 258.875C73.7704 259.941 73.0309 261.062 74.5342 262.232C76.0496 263.413 76.8861 262.359 77.759 261.28C80.22 258.233 82.7174 255.221 85.7968 252.513C86.7242 253.609 86.0089 254.5 85.7483 255.379C84.8875 258.281 84.0086 261.177 83.166 264.086C82.7599 265.491 83.2933 266.521 84.6754 266.915C86.1968 267.345 86.5787 266.128 86.8939 265.049C88.1063 260.88 89.5793 256.76 90.3794 252.513C91.1977 248.193 93.6284 245.036 96.3683 241.897C101.812 235.675 107.194 229.397 112.577 223.114C114.468 220.909 114.305 220.175 111.656 219.297C104.515 216.934 105.728 216.473 102.363 222.587C98.599 229.434 93.9558 235.626 89.3125 241.849C88.2821 243.23 87.0394 244.006 85.4149 244.478C80.9535 245.769 76.5224 247.163 72.0853 248.538C71.3155 248.774 70.5699 249.089 69.8364 249.429C68.4362 250.071 68.3331 251.198 68.812 252.476C69.3697 253.967 70.4971 253.688 71.5761 253.258C74.019 252.295 76.4133 251.21 78.8683 250.295C79.9412 249.895 81.0141 249.156 82.6811 249.75L82.6871 249.756Z" fill="url(#paint2_linear_39_225)"/>
<path d="M134.824 1.01211C134.824 1.01211 125.804 0.151721 119.142 11.9488C112.704 23.352 107.885 41.5595 119.869 53.302C131.853 65.0445 149.814 55.7681 153.512 47.6126C157.209 39.457 156.93 29.8715 154.106 21.922C151.281 13.9725 145.65 1.72102 134.824 1.01211Z" fill="white"/>
<defs>
<linearGradient id="paint0_linear_39_225" x1="121.498" y1="30.5715" x2="121.498" y2="148.209" gradientUnits="userSpaceOnUse">
<stop stop-opacity="0.56"/>
<stop offset="1" stop-color="#00110F"/>
</linearGradient>
<linearGradient id="paint1_linear_39_225" x1="209.125" y1="214.606" x2="209.125" y2="239.485" gradientUnits="userSpaceOnUse">
<stop stop-opacity="0.56"/>
<stop offset="1" stop-color="#00110F"/>
</linearGradient>
<linearGradient id="paint2_linear_39_225" x1="91.1985" y1="217.672" x2="91.1985" y2="248.12" gradientUnits="userSpaceOnUse">
<stop stop-opacity="0.56"/>
<stop offset="1" stop-color="#00110F"/>
</linearGradient>
</defs>
</svg>
