<svg width="377" height="313" viewBox="0 0 377 313" fill="none" xmlns="http://www.w3.org/2000/svg">
<path d="M32.8614 208.934C31.7804 193.487 28.0823 177.785 37.5268 159.009C40.8551 172.948 36.6165 184.783 48.2229 194.654C44.155 184.726 41.5947 176.732 44.0127 168.511C46.5161 159.977 51.978 153.946 60.6544 149.195C61.0242 151.898 61.7638 153.434 61.2802 154.316C49.6453 175.935 58.151 201.965 80.539 212.775C82.132 213.543 84.863 214.851 85.4603 214.282C97.7211 202.164 108.161 212.831 118.601 217.212C136.523 224.722 154.53 231.92 173.334 236.898C180.759 238.861 180.645 239.031 186.476 249.5C187.074 250.581 189.719 250.638 191.455 250.951C197.969 252.174 204.455 253.739 211.026 254.336C219.788 255.133 219.93 263.325 220.442 267.877C221.267 274.96 213.9 272.286 209.689 272.372C198.51 272.599 187.358 272.457 175.24 272.457C178.056 263.553 184.684 265.971 188.553 262.586C178.397 263.24 166.45 253.17 158.712 269.299C157.147 272.599 150.804 271.12 146.565 270.636C132 268.986 117.378 267.564 103.354 262.87C100.793 262.017 97.3228 260.424 96.1281 264.207C94.9048 268.161 98.9728 268.787 101.391 269.242C110.693 270.892 120.024 272.827 129.411 273.31C155.896 274.704 182.408 275.188 208.893 276.553C216.118 276.923 228.607 277.293 227.64 284.49C226.445 293.479 215.919 285.77 209.519 286.083C205.337 286.282 201.127 285.315 195.181 284.661C202.009 289.867 210.742 288.074 216.403 295.414C203.801 299.738 193.389 297.092 184.997 290.123C175.325 282.129 164.8 281.645 154.274 284.718C139.339 289.07 124.461 289.525 109.271 288.274L109.043 288.131C102.671 277.52 87.9352 276.439 82.4165 264.605C80.9657 261.476 76.8977 261.391 73.7401 260.481C70.3833 259.513 64.9783 259.229 66.799 254.051C68.2498 249.927 73.1427 251.633 76.8977 251.577C101.078 251.264 123.437 263.581 148.186 261.732C138.429 259.57 129.013 257.579 119.654 255.389C117.52 254.905 114.363 254.99 114.277 251.89C114.164 248.447 117.947 248.391 121.56 246.57C94.4781 243.64 69.3308 239.43 51.5513 218.35C46.8859 212.803 42.9602 218.692 38.8069 217.554C36.7872 214.709 34.7674 211.836 32.7477 208.991L32.8614 208.934Z" fill="#ECB600"/>
<path d="M342.481 174.399C350.133 152.381 331.756 145.042 319.894 133.179C333.634 136.394 348.483 139.836 356.961 150.703C371.526 169.336 380.088 191.581 375.963 215.875C374.257 225.974 370.217 237.58 354.457 234.394C350.503 233.598 345.724 236.841 341.059 238.292C342.026 239.714 342.538 240.454 343.022 241.165C346.521 246.285 356.392 237.922 356.762 246.371C357.046 252.914 349.251 255.502 343.818 258.176C333.975 263.012 325.27 269.072 317.277 276.752C304.703 288.842 288.232 294.276 272.103 299.908C259.785 304.232 249.999 292.512 237.71 294.162C234.438 294.589 236.003 290.037 238.478 288.103C246.273 282.015 253.868 276.411 264.763 276.013C276.853 275.558 288.858 272.997 303.651 265.857C276.91 266.511 253.84 276.183 227.099 264.179C245.96 258.404 262.317 258.262 276.74 251.463L277.394 250.979C296.425 247.196 314.66 241.023 332.183 232.659C334.971 231.322 335.853 228.677 337.702 226.799C345.895 218.379 347.431 203.785 360.46 200.201C372.436 196.901 368.709 187.741 365.865 182.62C362.679 176.931 354.941 175.196 348.768 181.369C345.24 184.896 342.282 184.526 339.579 180.487C340.547 178.439 341.514 176.419 342.481 174.371V174.399Z" fill="#ECB600"/>
<path d="M32.8616 208.934C34.8814 211.779 36.9011 214.624 38.9209 217.497C40.2294 233.769 53.116 235.362 65.0923 238.121C71.6352 239.629 78.8892 239.373 84.0951 244.209C82.4736 249.187 79.2875 248.618 76.6134 248.248C69.2456 247.253 62.9872 247.338 55.3918 251.121C41.9078 257.807 14.5416 237.381 13.7166 221.679C13.546 218.578 12.2374 216.643 7.08844 212.462C9.42111 222.447 11.0426 229.103 12.5219 235.788C13.2046 238.804 15.6511 242.815 11.1564 244.266C7.20223 245.574 5.49539 241.421 4.18682 238.576C-1.1897 226.828 -1.04747 214.624 2.67912 202.534C4.49974 196.588 5.95055 190.813 5.83676 184.527C5.4385 164.13 14.8261 148.399 32.1504 138.954C51.3523 128.514 71.2938 118.7 95.417 117.277C92.5723 125.755 86.257 125.726 81.3357 127.405C62.1623 133.976 44.7526 142.994 32.9754 160.375C21.9094 176.704 21.881 194.312 32.8901 208.906L32.8616 208.934Z" fill="#ECB600"/>
<path d="M15.2815 253.995C25.2665 260.566 32.4921 269.84 42.1926 276.496C58.123 287.449 75.9879 293.337 94.2794 298.515C97.4655 299.425 101.505 300.506 102.046 303.92C102.785 308.556 97.9491 308.016 95.1328 309.211C79.4015 315.867 61.3944 310.519 49.0768 294.845C44.2977 288.786 39.6323 284.604 31.4395 282.271C19.0081 278.715 20.4304 264.008 15.2815 253.995Z" fill="#ECB600"/>
<path d="M199.877 0.89914C199.877 0.89914 162.43 -2.66967 134.773 46.2632C108.046 93.5625 88.0396 169.086 137.792 217.792C187.545 266.499 262.112 228.021 277.463 194.193C292.814 160.365 291.656 120.605 279.929 87.6312C269.741 53.4089 244.823 3.83964 199.877 0.89914Z" fill="#FFFFF8"/>
<path d="M253.079 223.857C265.365 221.89 275.35 218.433 286.261 209.494C299.204 198.886 318.067 194.506 332.236 183.362C333.761 182.14 336.392 181.813 337.348 184.047C337.976 185.537 337.797 188.16 336.81 189.351C327.334 201.062 322.162 218.91 301.297 214.917C297.62 214.202 296.484 217.301 294.362 219.268C278.07 234.256 233.888 240.513 214.068 230.829C213.411 230.501 213.231 229.22 212.394 227.551C225.936 223.708 240.165 229.011 253.169 223.767L253.079 223.827V223.857Z" fill="#ECB600"/>
</svg>
