<svg width="105" height="31" viewBox="0 0 105 31" fill="none" xmlns="http://www.w3.org/2000/svg">
<path d="M15.4394 1.6V15.2L4.30338 1.6H0.0153751V24H5.13538V10.4L16.3034 24H20.5594V1.6H15.4394ZM42.3711 15.456C42.3711 9.92 38.4671 6.528 33.4111 6.528C28.1631 6.528 24.2271 10.24 24.2271 15.392C24.2271 20.512 28.0991 24.256 34.0511 24.256C37.1551 24.256 39.5551 23.296 41.1551 21.472L38.4991 18.592C37.3151 19.712 36.0031 20.256 34.1791 20.256C31.5551 20.256 29.7311 18.944 29.2511 16.8H42.2751C42.3071 16.384 42.3711 15.84 42.3711 15.456ZM33.4431 10.304C35.6831 10.304 37.3151 11.712 37.6671 13.888H29.1871C29.5391 11.68 31.1711 10.304 33.4431 10.304ZM58.2386 0.255999V8.608C56.9906 7.2 55.1986 6.528 53.0866 6.528C48.2226 6.528 44.4786 9.984 44.4786 15.392C44.4786 20.8 48.2226 24.256 53.0866 24.256C55.3906 24.256 57.2146 23.52 58.4626 22.016V24H63.2306V0.255999H58.2386ZM53.9506 20.16C51.4546 20.16 49.5346 18.368 49.5346 15.392C49.5346 12.416 51.4546 10.624 53.9506 10.624C56.4146 10.624 58.3346 12.416 58.3346 15.392C58.3346 18.368 56.4146 20.16 53.9506 20.16ZM80.1389 6.784L75.2749 18.464L70.4429 6.784H65.2909L72.7469 24.128L72.6829 24.288C72.0109 25.824 71.2429 26.432 69.8669 26.432C68.8749 26.432 67.8189 26.016 67.0509 25.344L65.2269 28.896C66.3469 29.888 68.2669 30.464 70.0269 30.464C73.1309 30.464 75.4989 29.216 77.1629 25.056L84.9389 6.784H80.1389ZM99.3279 6.784V15.296C99.3279 18.464 97.6639 19.936 95.3599 19.936C93.1519 19.936 91.8719 18.656 91.8719 15.776V6.784H86.8799V16.512C86.8799 21.824 89.9199 24.256 94.2399 24.256C96.3519 24.256 98.2719 23.456 99.5839 21.952V24H104.32V6.784H99.3279Z" fill="#FFD751"/>
</svg>
