<svg width="396" height="310" viewBox="0 0 396 310" fill="none" xmlns="http://www.w3.org/2000/svg">
<g clip-path="url(#clip0_39_76)">
<path d="M314.74 154.415C326.996 145.222 338.894 146.321 348.098 158.522C353.343 165.494 358.207 168.216 365.599 162.772C371.727 158.259 378.284 164.276 384.841 161.698C387.464 160.671 388.942 164.635 386.367 167.548C383.506 170.795 376.639 172.848 381.36 178.698C385.246 183.522 389.038 177.099 393.067 177.003C393.759 177.003 394.45 177.552 396 178.221C391.589 186.124 387.726 194.051 376.853 196.344C379.762 200.021 381.884 202.695 383.84 205.178C382.838 211.052 372.585 204.462 374.493 212.867C375.995 219.553 375.065 227.599 383.935 230.56C386.82 231.515 390.921 232.566 390.826 236.243C390.707 240.66 386.272 239.251 383.41 240.135C366.076 245.555 356.514 257.541 351.15 274.972C346.548 289.943 332.361 295.841 318.483 299.924C307.873 303.052 296.666 304.15 286.294 308.352C278.449 311.528 272.679 306.395 268.459 302.12C264.644 298.228 261.902 299.064 258.158 299.876C242.874 303.243 227.614 306.8 212.259 309.809C205.797 311.075 200.289 307.469 195.139 304.007C191.514 301.571 188.415 296.987 184.624 296.462C166.645 293.883 161.71 280.058 154.389 266.448C148.953 256.348 145.138 245.03 135.434 236.625C124.155 226.883 121.413 210.742 112.233 198.469C103.387 186.649 115.166 173.111 130.45 175.427C139.32 176.764 148.118 178.054 160.565 176.454C143.183 165.876 131.046 152.863 112.233 152.075C105.939 151.812 99.453 150.953 93.4682 149.066C81.5939 145.294 71.9133 146.703 63.7348 157.065C61.4935 159.907 58.5607 164.205 51.8844 160.193C48.8085 158.355 40.5824 163.894 35.3367 167.142C26.276 172.753 17.1915 177.433 6.05635 175.952C3.86271 175.666 0.906059 177.361 0.0476774 174.138C-0.667641 171.416 1.88366 169.864 3.83886 168.694C11.3259 164.205 18.5744 158.976 26.586 155.776C48.6893 146.989 64.2832 129.535 80.7594 114.015C95.1611 100.452 108.991 86.078 123.798 72.9215C137.246 60.9828 146.974 47.7548 152.267 30.1094C159.206 7.13936 172.439 -0.978949 194.972 0.0955329C206.202 0.620835 216.336 4.10693 222.821 13.6818C227.233 20.2242 234.791 19.3168 240.228 23.0178C243.041 24.928 248.335 25.6682 247.333 29.8467C246.212 34.479 241.42 37.0338 237.104 39.0873C233.814 40.6632 229.832 42.1914 227.805 37.7502C223.346 28.0559 220.056 34.5745 217.337 38.5381C213.451 44.1732 210.709 50.6678 212.116 57.6639C219.173 92.5249 199.598 114.85 175.944 135.146C170.866 139.516 164.762 142.691 159.134 146.392C156.893 147.873 153.722 148.756 154.509 152.385C155.081 154.988 157.394 156.301 159.659 156.874C171.557 159.931 183.288 163.966 195.663 164.73C200.933 165.064 206.322 164.849 207.132 157.519C207.538 153.77 210.494 151.908 213.546 151.239C220.127 149.831 222.392 144.601 226.207 139.993C240.514 122.658 230.642 104.989 228.449 87.3912C228.067 84.311 224.538 78.6521 230.905 80.2519C243.613 83.4515 246.117 75.8823 248.478 66.8089C248.74 65.83 249.932 65.1136 250.695 64.2779C255.583 66.0926 254.868 70.8681 256.37 74.2825C259.35 81.1354 263.833 86.1735 270.795 89.3014C279.546 93.2173 286.366 94.9126 285.054 81.2547C284.863 79.3923 284.84 77.0284 287.51 76.5748C289.751 76.2166 291.444 77.6731 292.303 79.4162C295.951 86.8659 303.366 89.2775 309.804 93.074C329.094 104.464 332.647 123.709 318.579 141.139C315.646 144.769 313.691 148.326 314.788 154.343L314.74 154.415Z" fill="#FFFFF8"/>
</g>
<defs>
<clipPath id="clip0_39_76">
<rect width="396" height="310" fill="white"/>
</clipPath>
</defs>
</svg>
